<svg xmlns="http://www.w3.org/2000/svg" width="183" height="32" fill="none"><rect width="183.153" height="32" fill="#1374ef" rx="4.522"/><path fill="#1269d3" d="M32 0h1v32h-1z"/><path fill="#fff" d="M10 17.588h5.165L12.127 25 22 14.412h-5.165L19.873 7Z"/><path fill="#fff" d="M173.42 20.203h-1.389l-1.857-2.513-1.87 2.513h-1.283l2.555-3.263-2.531-3.282h1.388l1.846 2.473 1.852-2.473h1.289l-2.573 3.223zm-7.254-3.27q0 1.6-.82 2.526-.82.926-2.198.926-1.389 0-2.209-.926-.814-.926-.814-2.525 0-1.6.814-2.526.82-.931 2.21-.931 1.376 0 2.196.931.82.926.82 2.526zm-1.137 0q0-1.27-.498-1.886-.498-.621-1.383-.621-.896 0-1.394.621-.493.615-.493 1.887 0 1.23.498 1.869.499.633 1.39.633.878 0 1.376-.627.504-.633.504-1.875zm-6.158-.052q0 .82-.235 1.477-.228.656-.62 1.101-.417.463-.915.698-.498.228-1.095.228-.557 0-.973-.135-.416-.129-.82-.351l-.07.304h-1.032v-9.117h1.102v3.258q.463-.38.984-.621.521-.246 1.172-.246 1.16 0 1.828.89.674.891.674 2.514zm-1.137.03q0-1.172-.387-1.776-.386-.61-1.248-.61-.48 0-.972.212-.493.205-.914.533v3.75q.468.21.802.293.34.082.768.082.914 0 1.43-.598.521-.603.521-1.887zm-6.79 3.292h-1.102v-.685q-.475.41-.99.639-.516.228-1.12.228-1.172 0-1.863-.902-.686-.903-.686-2.502 0-.832.235-1.483.24-.65.644-1.107.399-.445.926-.68.533-.234 1.102-.234.515 0 .914.111.398.106.838.334v-2.836h1.101zm-1.102-1.61v-3.757q-.446-.199-.797-.275-.352-.076-.768-.076-.926 0-1.441.644-.516.645-.516 1.828 0 1.166.398 1.776.399.603 1.278.603.469 0 .949-.205.48-.21.897-.539zm-6.329 1.61h-1.101v-3.726q0-.451-.053-.844-.053-.398-.193-.621-.147-.246-.422-.363-.276-.123-.715-.123-.451 0-.943.222-.493.223-.944.569v4.886h-1.101v-6.545h1.101v.727q.516-.428 1.067-.668.55-.24 1.13-.24 1.061 0 1.618.638.556.64.556 1.84zm-7.593 0h-1.096v-.697q-.147.1-.399.281-.246.176-.48.282-.275.134-.633.222-.357.094-.838.094-.884 0-1.5-.586-.615-.586-.615-1.494 0-.744.316-1.201.323-.463.915-.727.597-.263 1.435-.357.838-.094 1.799-.14v-.17q0-.376-.135-.622-.129-.246-.375-.387-.234-.134-.562-.181-.328-.047-.686-.047-.433 0-.967.117-.533.111-1.101.328h-.059V13.8q.322-.088.932-.193.61-.106 1.201-.106.691 0 1.201.117.516.112.89.387.37.27.563.697.194.428.194 1.061zm-1.096-1.61V16.77q-.504.03-1.19.088-.68.058-1.078.17-.474.134-.767.421-.293.282-.293.78 0 .562.34.85.34.28 1.037.28.58 0 1.06-.222.48-.229.89-.545zm-5.766-.88q0 .51-.24 1.008-.234.498-.662.844-.469.375-1.096.586-.62.21-1.5.21-.943 0-1.699-.175-.75-.176-1.53-.522v-1.453h.083q.662.551 1.529.85.867.299 1.629.299 1.078 0 1.676-.405.603-.404.603-1.078 0-.58-.287-.855-.281-.276-.861-.428-.44-.117-.955-.193-.51-.077-1.084-.194-1.16-.246-1.723-.838-.557-.597-.557-1.552 0-1.096.926-1.793.926-.703 2.35-.703.92 0 1.687.175.768.176 1.36.434V13.3h-.082q-.498-.422-1.313-.697-.808-.281-1.658-.281-.932 0-1.5.386-.562.387-.562.996 0 .545.28.856.282.31.991.474.375.082 1.066.2.692.117 1.172.24.973.258 1.465.78.492.52.492 1.458zm-8.097-.668h-4.823q0 .604.182 1.055.182.445.498.732.305.282.72.422.423.14.927.14.668 0 1.341-.263.68-.27.967-.527h.059v1.2q-.557.235-1.137.394-.58.158-1.219.158-1.629 0-2.543-.88-.914-.884-.914-2.507 0-1.605.873-2.549.88-.943 2.309-.943 1.324 0 2.039.773.72.774.72 2.198zm-1.073-.844q-.006-.867-.44-1.341-.427-.475-1.306-.475-.884 0-1.412.522-.521.521-.592 1.294zm-6.574 4.002h-1.101v-.685q-.475.41-.99.639-.516.228-1.12.228-1.172 0-1.863-.902-.686-.903-.686-2.502 0-.832.235-1.483.24-.65.644-1.107.399-.445.926-.68.533-.234 1.102-.234.515 0 .914.111.398.106.838.334v-2.836h1.101zm-1.101-1.61v-3.757q-.446-.199-.797-.275-.352-.076-.768-.076-.926 0-1.441.644-.516.645-.516 1.828 0 1.166.399 1.776.398.603 1.277.603.469 0 .95-.205.48-.21.896-.539zm-5.913-1.66q0 1.6-.82 2.526-.82.926-2.197.926-1.389 0-2.21-.926-.814-.926-.814-2.525 0-1.6.815-2.526.82-.931 2.209-.931 1.377 0 2.197.931.82.926.82 2.526zm-1.136 0q0-1.27-.498-1.886-.498-.621-1.383-.621-.897 0-1.395.621-.492.615-.492 1.887 0 1.23.498 1.869.498.633 1.389.633.879 0 1.377-.627.504-.633.504-1.875zm-5.994 2.638q-.323.14-.586.263-.258.123-.68.258-.357.111-.78.188-.415.082-.92.082-.948 0-1.728-.264-.773-.27-1.347-.838-.563-.557-.88-1.412-.316-.861-.316-1.998 0-1.078.305-1.928.305-.85.879-1.435.557-.569 1.342-.868.79-.298 1.752-.298.703 0 1.4.17.703.17 1.559.597v1.377h-.088q-.721-.603-1.43-.879-.709-.275-1.518-.275-.662 0-1.195.217-.527.21-.943.662-.404.44-.633 1.113-.223.668-.223 1.547 0 .92.246 1.582.252.662.645 1.078.41.434.955.645.55.205 1.16.205.838 0 1.57-.287.733-.288 1.372-.862h.082zm-13.166.632h-1.102v-3.726q0-.451-.053-.844-.052-.398-.193-.621-.147-.246-.422-.363-.275-.123-.715-.123-.45 0-.943.222-.492.223-.943.569v4.886H80.53v-6.545h1.102v.727q.515-.428 1.066-.668.55-.24 1.13-.24 1.061 0 1.618.638.557.64.557 1.84zm-7.582-7.64h-1.243V11.42h1.243zm-.07 7.64H77.25v-6.545h1.101zm-7.454 0h-1.101v-3.726q0-.451-.053-.844-.053-.398-.194-.621-.146-.246-.421-.363-.276-.123-.715-.123-.451 0-.944.222-.492.223-.943.569v4.886h-1.102v-6.545h1.102v.727q.516-.428 1.066-.668.551-.24 1.131-.24 1.06 0 1.618.638.556.64.556 1.84zm-7.142-3.158h-4.823q0 .604.182 1.055.182.445.498.732.305.282.72.422.423.14.926.14.668 0 1.342-.263.68-.27.967-.527h.059v1.201q-.557.234-1.137.393-.58.158-1.219.158-1.629 0-2.543-.88-.914-.884-.914-2.507 0-1.605.873-2.549.88-.943 2.309-.943 1.324 0 2.039.773.72.774.72 2.198zm-1.073-.844q-.006-.867-.44-1.341-.427-.475-1.306-.475-.885 0-1.412.522-.521.521-.592 1.294zm-6.123.65q0 .798-.228 1.46-.229.656-.645 1.113-.387.434-.914.674-.521.234-1.107.234-.51 0-.926-.111-.41-.111-.838-.346v2.742H50.8v-8.959h1.102v.686q.44-.37.984-.615.551-.252 1.172-.252 1.184 0 1.84.896.662.89.662 2.479zm-1.136.03q0-1.183-.405-1.77-.404-.585-1.242-.585-.475 0-.955.205t-.92.539v3.709q.469.21.803.287.34.076.767.076.92 0 1.436-.621.516-.621.516-1.84zm-7.477-4.4q.533.586.814 1.435.288.85.288 1.928 0 1.078-.293 1.934-.288.85-.809 1.418-.54.591-1.277.89-.733.299-1.676.299-.92 0-1.676-.305-.75-.304-1.277-.884-.528-.58-.815-1.424-.281-.844-.281-1.928 0-1.066.281-1.91.282-.85.82-1.453.516-.574 1.278-.88.768-.304 1.67-.304.937 0 1.681.31.75.305 1.272.874zm-.105 3.363q0-1.7-.762-2.62-.762-.925-2.08-.925-1.33 0-2.092.926-.756.92-.756 2.619 0 1.717.773 2.63.774.91 2.075.91 1.3 0 2.068-.91.774-.913.774-2.63z" aria-label="Open in CodeSandbox"/></svg>
